<svg id="Layer_1" data-name="Layer 1" xmlns="http://www.w3.org/2000/svg" xmlns:xlink="http://www.w3.org/1999/xlink" viewBox="0 0 792 612"><defs><style>.cls-1{fill:#0e2f51;}.cls-2{fill:url(#radial-gradient);}</style><radialGradient id="radial-gradient" cx="137.72" cy="136.12" r="51.48" gradientUnits="userSpaceOnUse"><stop offset="0" stop-color="#0b2337"/><stop offset="0.38" stop-color="#0b2337" stop-opacity="0.49"/><stop offset="0.75" stop-color="#0b2337" stop-opacity="0.13"/><stop offset="1" stop-color="#0b2337" stop-opacity="0"/></radialGradient></defs><title>Logo_SERV_Animado</title><path class="cls-1" d="M156.49,565.73l2.92-4.5a20.43,20.43,0,0,0,12.2,3.75,9.83,9.83,0,0,0,6-1.73,5.46,5.46,0,0,0,2.3-4.55,5.31,5.31,0,0,0-2.44-4.47,36.36,36.36,0,0,0-7.14-3.61,32.46,32.46,0,0,1-9.14-5.11,9.23,9.23,0,0,1-3.24-7.37,8.93,8.93,0,0,1,3.89-7.74,16,16,0,0,1,9.53-2.77A22.78,22.78,0,0,1,184,531.38l-2.53,4.13a19.8,19.8,0,0,0-9.77-2.63,11.61,11.61,0,0,0-5.72,1.27,4.27,4.27,0,0,0-2.26,4,5,5,0,0,0,2.2,4.18,29.45,29.45,0,0,0,6.53,3.33,33.13,33.13,0,0,1,9.86,5.35,9.65,9.65,0,0,1,3.37,7.7,10.36,10.36,0,0,1-3.94,8.4,15.48,15.48,0,0,1-10.13,3.23A26.26,26.26,0,0,1,156.49,565.73Z"/><path class="cls-1" d="M227.88,532.51q4.92,5.44,4.92,14.64a32.55,32.55,0,0,1-.28,4H199.29a15,15,0,0,0,5.07,10.29,15.47,15.47,0,0,0,10.42,3.79A18.34,18.34,0,0,0,222,564a17.51,17.51,0,0,0,5.49-3.8l3.29,4.13a23.3,23.3,0,0,1-26.94,3.52,19.5,19.5,0,0,1-7.61-7.75,23.29,23.29,0,0,1-2.72-11.35,22.49,22.49,0,0,1,2.68-10.94,20.42,20.42,0,0,1,18.25-10.75Q223,527.06,227.88,532.51Zm-23.43,3.66a16.23,16.23,0,0,0-5.06,10h27.77q-.18-6.48-3.65-10.09a12.16,12.16,0,0,0-9.2-3.62A14.17,14.17,0,0,0,204.45,536.17Z"/><path class="cls-1" d="M268.19,528.66l-1.69,5.07a16.61,16.61,0,0,0-5.54-1,10.59,10.59,0,0,0-8.26,3.43q-3.1,3.43-3.1,9.43v24h-5.72V528.1h4.32l1.12,6.1q3.75-6.94,12.11-7A16.14,16.14,0,0,1,268.19,528.66Z"/><path class="cls-1" d="M312.3,528.1v.18L293,570.05H290.9l-19.43-41.77v-.18h6.19l12,26.56a48.52,48.52,0,0,1,2.25,5.91,46.93,46.93,0,0,1,2.25-5.91l11.93-26.56Z"/><path class="cls-1" d="M316.33,569.39A3.94,3.94,0,0,1,315,566.2a4.15,4.15,0,0,1,1.27-3.28,4.53,4.53,0,0,1,3.14-1.13,4.63,4.63,0,0,1,3.1,1.13,4.08,4.08,0,0,1,1.32,3.28,3.94,3.94,0,0,1-1.32,3.19,4.82,4.82,0,0,1-6.2,0Z"/><path class="cls-1" d="M343.23,568a19.72,19.72,0,0,1-7.65-7.52,22.63,22.63,0,0,1-2.91-11.77,22,22,0,0,1,2.91-11.55,19.6,19.6,0,0,1,7.74-7.46,23.25,23.25,0,0,1,18.59-1.18,23.09,23.09,0,0,1,6.8,4.23l-3.29,3.94a16.36,16.36,0,0,0-5.26-3.24,18.57,18.57,0,0,0-6.28-1,15.44,15.44,0,0,0-7.84,2,14.4,14.4,0,0,0-5.54,5.72,17.45,17.45,0,0,0-2,8.5,17.89,17.89,0,0,0,2,8.63,14.66,14.66,0,0,0,13.29,7.88,17.19,17.19,0,0,0,6.84-1.21,19.64,19.64,0,0,0,5.54-3.76l3.19,4.13a22.77,22.77,0,0,1-7.08,4.69,23.94,23.94,0,0,1-9,1.51A20.77,20.77,0,0,1,343.23,568Z"/><path class="cls-1" d="M385.61,567.85A19.43,19.43,0,0,1,378,560.1a24.67,24.67,0,0,1,0-22.52,19.43,19.43,0,0,1,7.61-7.75,22.05,22.05,0,0,1,11.07-2.77,22.32,22.32,0,0,1,11.17,2.77,19.86,19.86,0,0,1,7.65,7.75,24.27,24.27,0,0,1,0,22.52,19.86,19.86,0,0,1-7.65,7.75,22.32,22.32,0,0,1-11.17,2.77A22.05,22.05,0,0,1,385.61,567.85ZM408,560.67a18.15,18.15,0,0,0,.05-23.66,15,15,0,0,0-11.4-4.6,15.48,15.48,0,0,0-8.07,2.12,14.43,14.43,0,0,0-5.54,5.86,18,18,0,0,0-2,8.45,16.5,16.5,0,0,0,4.37,11.83,14.81,14.81,0,0,0,11.22,4.59A15,15,0,0,0,408,560.67Z"/><path class="cls-1" d="M487.17,531.61q3.74,4.38,3.74,12v26h-5.72V543.3c0-3.31-.81-5.93-2.44-7.84A8.42,8.42,0,0,0,476,532.6a11.1,11.1,0,0,0-6.89,2.16,13.23,13.23,0,0,0-4.32,5.68,19.4,19.4,0,0,0-1.46,7.56v21.58H457.6V543.21a11.93,11.93,0,0,0-2.35-7.6,8.16,8.16,0,0,0-6.86-3,11,11,0,0,0-9.38,4.56A17.69,17.69,0,0,0,435.63,548v21.58h-5.72V528.1h4.32l1.31,7.13a14.8,14.8,0,0,1,5.54-5.91,15.26,15.26,0,0,1,8-2.07,14.21,14.21,0,0,1,8,2.21,12.55,12.55,0,0,1,4.84,6.15,16.12,16.12,0,0,1,5.76-6.15,16.41,16.41,0,0,1,8.69-2.21C481.07,527.25,484.66,528.71,487.17,531.61Z"/><path class="cls-1" d="M506.5,569.39a3.94,3.94,0,0,1-1.32-3.19,4.15,4.15,0,0,1,1.28-3.28,4.52,4.52,0,0,1,3.13-1.13,4.65,4.65,0,0,1,3.11,1.13A4.07,4.07,0,0,1,514,566.2a3.94,3.94,0,0,1-1.31,3.19,4.6,4.6,0,0,1-3.11,1.13A4.55,4.55,0,0,1,506.5,569.39Z"/><path class="cls-1" d="M533.39,568a19.77,19.77,0,0,1-7.64-7.52,22.64,22.64,0,0,1-2.92-11.77,22.05,22.05,0,0,1,2.92-11.55,19.6,19.6,0,0,1,7.74-7.46,23.22,23.22,0,0,1,18.58-1.18,23,23,0,0,1,6.81,4.23l-3.29,3.94a16.47,16.47,0,0,0-5.26-3.24,18.57,18.57,0,0,0-6.28-1,15.44,15.44,0,0,0-7.84,2,14.33,14.33,0,0,0-5.54,5.72,17.45,17.45,0,0,0-2,8.5,17.89,17.89,0,0,0,2,8.63,14.7,14.7,0,0,0,5.5,5.82,14.87,14.87,0,0,0,7.79,2.06,17.22,17.22,0,0,0,6.84-1.21,19.78,19.78,0,0,0,5.54-3.76l3.19,4.13a22.89,22.89,0,0,1-7.08,4.69,23.94,23.94,0,0,1-9,1.51A20.78,20.78,0,0,1,533.39,568Z"/><path class="cls-1" d="M575.77,567.85a19.41,19.41,0,0,1-7.6-7.75,24.67,24.67,0,0,1,0-22.52,19.41,19.41,0,0,1,7.6-7.75,22.1,22.1,0,0,1,11.07-2.77A22.34,22.34,0,0,1,598,529.83a19.77,19.77,0,0,1,7.64,7.75,24.27,24.27,0,0,1,0,22.52,19.77,19.77,0,0,1-7.64,7.75,22.34,22.34,0,0,1-11.18,2.77A22.1,22.1,0,0,1,575.77,567.85Zm22.43-7.18a18.15,18.15,0,0,0,0-23.66,15,15,0,0,0-11.41-4.6,15.47,15.47,0,0,0-8.06,2.12,14.36,14.36,0,0,0-5.54,5.86,17.83,17.83,0,0,0-2,8.45,16.5,16.5,0,0,0,4.37,11.83,14.79,14.79,0,0,0,11.21,4.59A15,15,0,0,0,598.2,560.67Z"/><path class="cls-1" d="M186.12,161.17l-62,28.4C110,196,115,217.24,130.52,216.77h595.9c15.23.29,21-19.78,8-27.64L482.68,37.81A24.83,24.83,0,0,0,459.6,36.5L243.82,134.94v-5.72a4,4,0,0,1,2.48-3.66l8-3.21V106.61H175.63v15.74l8.52,4.26a3.56,3.56,0,0,1,2,3.2Z"/><circle class="cls-2" cx="137.72" cy="136.12" r="51.48"/><line class="cls-1" x1="65.91" y1="209.14" x2="208.29" y2="66.76"/><path class="cls-1" d="M65.91,209.14c11.28-12.45,22.84-24.62,34.5-36.69,5.8-6.07,11.7-12,17.56-18l17.72-17.87,17.87-17.72c6-5.86,12-11.76,18-17.57C183.66,89.6,195.83,78,208.29,66.76,197,79.22,185.45,91.39,173.8,103.46c-5.81,6.07-11.71,12-17.57,18l-17.72,17.88-17.87,17.71c-6,5.86-12,11.76-18,17.56C90.53,186.3,78.36,197.86,65.91,209.14Z"/><line class="cls-1" x1="66.49" y1="66.19" x2="207.71" y2="208.56"/><path class="cls-1" d="M66.49,66.19C78.85,77.47,90.92,89,102.9,100.68c6,5.81,11.93,11.71,17.89,17.57L138.52,136l17.58,17.87c5.8,6,11.66,12,17.41,18,11.56,12.07,23,24.24,34.2,36.69-12.36-11.28-24.44-22.84-36.42-34.49-6-5.81-11.92-11.71-17.88-17.57l-17.73-17.72-17.57-17.87c-5.81-6-11.67-12-17.42-18C89.13,90.8,77.67,78.63,66.49,66.19Z"/><path class="cls-1" d="M81.71,137.68c9.2-.83,18.39-1.26,27.59-1.55,4.6-.19,9.2-.23,13.8-.34l13.79-.11,13.8.11c4.6.11,9.2.15,13.8.33,9.19.29,18.39.73,27.59,1.56-9.2.83-18.4,1.27-27.59,1.56-4.6.19-9.2.22-13.8.34l-13.8.1-13.79-.11c-4.6-.11-9.2-.15-13.8-.33C100.1,138.94,90.91,138.51,81.71,137.68Z"/><line class="cls-1" x1="137.34" y1="82.5" x2="136.89" y2="192.42"/><path class="cls-1" d="M137.34,82.5c.79,9.16,1.19,18.32,1.45,27.48.16,4.58.18,9.16.27,13.74l.06,13.75L139,151.21c-.13,4.58-.19,9.16-.39,13.74-.33,9.15-.81,18.31-1.68,27.47-.79-9.16-1.19-18.33-1.44-27.49-.17-4.58-.19-9.16-.28-13.74l0-13.74.17-13.74c.12-4.58.18-9.16.39-13.74C136,100.81,136.48,91.65,137.34,82.5Z"/><path class="cls-1" d="M183.68,307.34s11.17-25.17,9.48-33.48c-.58-2.81-4.39-4.94-9.48-3.16-12.63,4.42-18.7,28.61-18.32,33.48s1.16,9.07,12,17.69c21.61,17.18,37,28.44,40.43,42.33,3.35,13.38-5.7,48.9-19.58,75.81-8.42,16.32-34.48,31.46-46.12,34.11-13.89,3.16-77.7,18.32-88.44-23.37-4.55-17.66,13.9-61.91,13.9-61.91H136.3l-9.82,25.67c-3.29,9.08-8.87,21.13-3.45,23.6,20.85,9.48,33.49-33.48,29.06-44.22-5.94-14.43-39.47-34.37-47.38-51.17-10.1-21.48,8.93-93.18,59.39-107.39,44.85-12.64,75.22.68,83.38,8.84,13.27,13.27,1.31,44.54-5.68,63.8Z"/><polygon class="cls-1" points="293.18 232.21 399.31 232.21 381.62 281.8 339.29 281.8 322.87 327.91 362.04 327.91 346.24 374.03 306.44 374.03 288.12 427.73 334.87 427.73 317.18 476.1 207.26 476.1 293.18 232.21"/><polygon class="cls-1" points="589.78 232.21 503.95 476.1 614.32 476.1 736.74 232.21 676.19 232.21 583.22 426.54 650.38 232.21 589.78 232.21"/><path class="cls-1" d="M493,232.2c-21.48-1.26-68.86,0-68.86,0L338.87,476.1h62.55l39.16-109.37s12.49,1,13.9,3.79c1.9,3.79.8,8.89-.63,13.27C442.48,418.53,421,476.1,421,476.1h58.75S505,407.16,512.6,381.89c1.76-5.87,6.09-14.35-5.05-24-9.48-8.21-17.06-8.21-17.06-8.21l8.84-1.26c5.2-.74,19.53-4.88,31-20.22,11.13-14.93,22.48-34,23.11-66.85S509,233.15,493,232.2Zm-19,90.94c-8.21,8.84-19.58,5.68-19.58,5.68l18.95-54.32s6.17.38,8.21.63a9.4,9.4,0,0,1,6.95,3.79C491.85,283,482.28,314.29,474.06,323.14Z"/><path class="cls-1" d="M657.69,473.36a17.79,17.79,0,0,1-6.65-6.77,19.3,19.3,0,0,1-2.42-9.66A18.92,18.92,0,0,1,651,447.4a18,18,0,0,1,6.65-6.73,19.19,19.19,0,0,1,18.8,0,18,18,0,0,1,6.65,6.73,18.92,18.92,0,0,1,2.42,9.53,19.3,19.3,0,0,1-2.42,9.66,17.79,17.79,0,0,1-6.65,6.77,19.19,19.19,0,0,1-18.8,0Zm17-3.05a14.51,14.51,0,0,0,5.39-5.52,15.81,15.81,0,0,0,2-7.86,15.4,15.4,0,0,0-2-7.73,14.27,14.27,0,0,0-5.39-5.43,15,15,0,0,0-7.61-2,14.75,14.75,0,0,0-7.56,2,14.33,14.33,0,0,0-5.36,5.43,15.5,15.5,0,0,0-2,7.73,15.91,15.91,0,0,0,2,7.86,14.5,14.5,0,0,0,12.92,7.52A14.77,14.77,0,0,0,674.7,470.31Zm-13.8-22.57h7.69a5.85,5.85,0,0,1,4.14,1.5,5,5,0,0,1,1.63,3.85,4.93,4.93,0,0,1-1.38,3.59,5.54,5.54,0,0,1-3.47,1.67l5.35,7.53H671.6l-5.18-7.53h-2.84v7.53H660.9Zm7.44,8.19a3.59,3.59,0,0,0,2.43-.79,2.6,2.6,0,0,0,.92-2.05,2.7,2.7,0,0,0-.92-2.09,3.47,3.47,0,0,0-2.43-.84h-4.76v5.77Z"/></svg>