<svg id="Layer_1" data-name="Layer 1" xmlns="http://www.w3.org/2000/svg" viewBox="0 0 298.24 287.7"><defs><style>.cls-1{font-size:30.53px;fill:#1f3466;font-family:Noah-Bold, Noah;font-weight:700;}.cls-2{letter-spacing:-0.02em;}.cls-3{letter-spacing:-0.01em;}.cls-4{letter-spacing:-0.01em;}.cls-5{letter-spacing:0em;}.cls-6{letter-spacing:-0.02em;}.cls-7{letter-spacing:0em;}.cls-8{letter-spacing:-0.02em;}.cls-9{letter-spacing:-0.02em;}.cls-10{letter-spacing:-0.02em;}.cls-11{letter-spacing:0em;}.cls-12{fill:#0f2f50;}</style></defs><title>elementos container_2</title><text class="cls-1" transform="translate(12.36 170.7)">All-included<tspan class="cls-2" x="158.24" y="0"> </tspan><tspan x="164.65" y="0">Gene</tspan><tspan class="cls-3" x="233.71" y="0">r</tspan><tspan x="244.61" y="0">al </tspan><tspan x="42.42" y="33.61">cl</tspan><tspan class="cls-4" x="63.76" y="33.61">e</tspan><tspan class="cls-5" x="78.9" y="33.61">aning </tspan><tspan class="cls-6" x="157.37" y="33.61">f</tspan><tspan class="cls-7" x="167.29" y="33.61">o</tspan><tspan class="cls-8" x="184.11" y="33.61">r</tspan><tspan x="194.92" y="33.61" xml:space="preserve"> all</tspan><tspan x="57.11" y="67.22">e</tspan><tspan class="cls-9" x="72.43" y="67.22">n</tspan><tspan class="cls-5" x="87.85" y="67.22">vi</tspan><tspan class="cls-10" x="109.89" y="67.22">r</tspan><tspan x="120.61" y="67.22">ome</tspan><tspan class="cls-4" x="176.94" y="67.22">n</tspan><tspan class="cls-11" x="192.81" y="67.22">t</tspan><tspan x="204.26" y="67.22">s</tspan></text><path class="cls-12" d="M112.54,93.92h5.56a2.64,2.64,0,0,0,.64-5.2l-.15,0-5.48-2a2.87,2.87,0,0,0-.58-.07,2.64,2.64,0,0,0-2.63,2.64v2.07A2.64,2.64,0,0,0,112.54,93.92Z"/><path class="cls-12" d="M114.19,116a1.87,1.87,0,1,0,3.73,0v-3.23h-3.73Z"/><path class="cls-12" d="M114,84.07l5.49,2a5.35,5.35,0,0,1,4,5.17,5.24,5.24,0,0,1-.72,2.64h17.66a5.24,5.24,0,0,1-.72-2.64,5.34,5.34,0,0,1,4-5.17l4.61-1.7V76.55a12.84,12.84,0,0,0-12.83-12.82h-8.86a12.83,12.83,0,0,0-12.82,12.82V84l.11,0Zm9.51-6.23A2.51,2.51,0,0,1,125.61,79h10.75a2.53,2.53,0,1,1,0,2.71H125.61a2.53,2.53,0,1,1-2.12-3.89Z"/><path class="cls-12" d="M150,86.64l-5.63,2.08a2.64,2.64,0,0,0,.64,5.2h5.56a2.64,2.64,0,0,0,2.64-2.64V89.21A2.65,2.65,0,0,0,150,86.64Z"/><path class="cls-12" d="M145.17,116a1.87,1.87,0,1,0,3.74,0v-3.23h-3.74Z"/><path class="cls-12" d="M149.14,96.63H114a4.06,4.06,0,0,0-4.06,4.06V106A4.06,4.06,0,0,0,114,110.1h35.18A4.06,4.06,0,0,0,153.2,106v-5.35A4.06,4.06,0,0,0,149.14,96.63Z"/><path class="cls-12" d="M122.41,37.35H109.59a4.06,4.06,0,0,0-4.06,4.06v12.8a4.06,4.06,0,0,0,4.06,4.06h12.82a4.07,4.07,0,0,0,4.07-4.06V41.41A4.07,4.07,0,0,0,122.41,37.35ZM116,53.89s-.74-6.09-5.43-6.09c4.69,0,5.43-6.06,5.43-6.06s.76,6.06,5.45,6.06C116.75,47.8,116,53.89,116,53.89Z"/><path class="cls-12" d="M152.37,37.35H139.55a4.07,4.07,0,0,0-4.07,4.06v12.8a4.07,4.07,0,0,0,4.07,4.06h12.82a4.06,4.06,0,0,0,4.07-4.06V41.41A4.06,4.06,0,0,0,152.37,37.35ZM146,53.89s-.75-6.09-5.43-6.09c4.68,0,5.43-6.06,5.43-6.06s.74,6.06,5.43,6.06C146.71,47.8,146,53.89,146,53.89Z"/><path class="cls-12" d="M159.35,86V117.9H105.84v2.71h85.32V86Zm29.11,2.71v7.78h-26.4V88.7Zm0,10.49v8.22h-26.4V99.19Zm-26.4,18.71v-7.78h26.4v7.78Z"/><path class="cls-12" d="M177,114a1.7,1.7,0,0,1-1.69,1.71,1.71,1.71,0,1,1,0-3.42A1.69,1.69,0,0,1,177,114Z"/><path class="cls-12" d="M173.55,92.55a1.72,1.72,0,0,1,1.71-1.7,1.71,1.71,0,0,1,0,3.41A1.72,1.72,0,0,1,173.55,92.55Z"/><path class="cls-12" d="M177,103.31a1.7,1.7,0,0,1-1.69,1.7,1.71,1.71,0,1,1,0-3.41A1.69,1.69,0,0,1,177,103.31Z"/><path class="cls-12" d="M183.5,83.29H168.91A7.55,7.55,0,0,1,174.85,78V67.79h-9.5l3.37-18.32h15l3.38,18.32h-9.5V78A7.55,7.55,0,0,1,183.5,83.29Z"/><path class="cls-12" d="M152.48,68.45c4.69,0,5.43-6.08,5.43-6.08s.75,6.08,5.44,6.08c-4.69,0-5.44,6.07-5.44,6.07S157.17,68.45,152.48,68.45Z"/><path class="cls-12" d="M174.55,41.08C179.24,41.08,180,35,180,35s.74,6.08,5.44,6.08c-4.7,0-5.44,6.07-5.44,6.07S179.24,41.08,174.55,41.08Z"/></svg>