<svg id="Layer_1" data-name="Layer 1" xmlns="http://www.w3.org/2000/svg" viewBox="0 0 298.24 287.7"><defs><style>.cls-1{font-size:30.53px;fill:#1f3466;font-family:Noah-Bold, Noah;font-weight:700;}.cls-2{letter-spacing:-0.02em;}.cls-3{letter-spacing:-0.01em;}.cls-4{letter-spacing:-0.02em;}.cls-5{fill:#0f2f50;}</style></defs><title>elementos container_2</title><text class="cls-1" transform="translate(106.96 178.42)">Cl<tspan class="cls-2" x="28.39" y="0">o</tspan><tspan x="44.73" y="0">ths</tspan><tspan class="cls-3" x="-17.01" y="33.61">w</tspan><tspan x="3.18" y="33.61">ash and</tspan><tspan x="-3.63" y="67.22">i</tspan><tspan class="cls-4" x="3.6" y="67.22">r</tspan><tspan x="14.32" y="67.22">oning</tspan></text><path class="cls-5" d="M184.85,91.61a3.79,3.79,0,1,0,0-7.57H105.74a3.79,3.79,0,0,0,0,7.57h18.15l19.37,17.11-19.12,16.91H103.32v2.71h84v-2.71H166.47l-19.12-16.91,19.37-17.11Zm-22.47,34H128.23l17.07-15.09ZM145.3,106.92,128,91.61h34.65Z"/><path class="cls-5" d="M158.33,60.93v0H151v0a3.67,3.67,0,0,1,3.67-3.67h0A3.66,3.66,0,0,1,158.33,60.93Z"/><path class="cls-5" d="M182.16,54.31v-.8a2.32,2.32,0,0,0-2.32-2.31H177.2V47.62A4.23,4.23,0,0,0,173,43.4h-5.36c-9,0-22.08,2.94-31.22,9.51a30.82,30.82,0,0,0-5.48,5,21.48,21.48,0,0,0-5.47,14.32v1.35H177.2V59.83h2.64a2.32,2.32,0,0,0,2.32-2.3v-.41a3.78,3.78,0,0,1,2.42,3.52V61h2.71v-.37A6.49,6.49,0,0,0,182.16,54.31Zm-17.39,5.75a3.54,3.54,0,0,1-3.54,3.55h-16A2.24,2.24,0,0,1,144,59.48a53,53,0,0,1,16.5-6.89A3.53,3.53,0,0,1,164.77,56Z"/><path class="cls-5" d="M137.18,48.31v.93c-.81.49-1.6,1-2.37,1.56a35.49,35.49,0,0,0-2.89,2.29V48.31a1,1,0,0,1,1-1h3.35A1,1,0,0,1,137.18,48.31Z"/><path class="cls-5" d="M109.91,63.67c4.77,0,5.53-6.18,5.53-6.18s.75,6.18,5.52,6.18c-4.77,0-5.52,6.17-5.52,6.17S114.68,63.67,109.91,63.67Z"/><path class="cls-5" d="M177.84,41.18c4.77,0,5.52-6.18,5.52-6.18s.76,6.18,5.53,6.18c-4.77,0-5.53,6.17-5.53,6.17S182.61,41.18,177.84,41.18Z"/><path class="cls-5" d="M124.23,76.32v5h54.26v-5Z"/></svg>